<svg id="svg" version="1.1" xmlns="http://www.w3.org/2000/svg" xmlns:xlink="http://www.w3.org/1999/xlink" width="400" height="400" viewBox="0, 0, 400,400"><g id="svgg"><path id="path0" d="M118.960 102.031 C 112.327 108.208,105.865 114.227,104.600 115.405 C 103.335 116.584,101.920 117.897,101.456 118.324 C 100.829 118.900,99.293 121.390,95.486 128.000 C 92.666 132.895,87.971 141.040,85.052 146.100 C 82.133 151.160,79.704 155.371,79.655 155.458 C 79.607 155.544,77.653 164.420,75.314 175.181 L 71.061 194.748 71.616 198.192 C 71.921 200.087,72.214 201.681,72.268 201.735 C 72.357 201.824,75.454 199.460,91.700 186.899 C 107.210 174.908,121.354 164.035,121.703 163.835 C 121.930 163.705,129.552 163.009,139.478 162.211 L 156.857 160.814 171.220 171.010 C 179.119 176.618,185.705 181.253,185.855 181.310 C 186.004 181.368,186.571 181.029,187.113 180.559 C 187.656 180.088,191.423 176.777,195.484 173.201 C 199.545 169.626,203.650 166.025,204.605 165.200 L 206.342 163.700 210.601 154.600 C 212.943 149.595,214.887 145.467,214.920 145.426 C 214.953 145.386,218.321 145.822,222.405 146.395 C 226.488 146.969,229.864 147.403,229.906 147.361 C 229.948 147.319,232.898 141.213,236.462 133.792 C 240.026 126.371,243.222 119.746,243.564 119.069 L 244.186 117.839 246.943 118.427 C 248.459 118.751,251.395 119.371,253.467 119.805 L 257.234 120.595 261.467 117.632 C 263.795 116.002,266.465 114.132,267.400 113.476 L 269.100 112.282 269.154 108.228 L 269.208 104.174 267.105 105.637 C 265.150 106.997,259.654 110.783,257.959 111.937 L 257.217 112.442 250.819 111.101 C 247.300 110.363,244.313 109.796,244.181 109.840 C 244.050 109.883,240.766 116.530,236.884 124.610 C 229.877 139.195,229.822 139.300,229.263 139.237 C 228.953 139.203,226.135 138.821,223.000 138.388 C 219.865 137.955,216.754 137.529,216.086 137.441 L 214.872 137.281 210.603 146.412 C 206.507 155.175,206.294 155.579,205.317 156.439 C 204.106 157.506,197.309 163.475,190.864 169.131 C 188.314 171.369,186.126 173.200,186.001 173.200 C 185.877 173.200,183.980 171.924,181.786 170.365 L 177.797 167.530 174.433 162.415 C 172.584 159.602,168.827 153.881,166.085 149.702 C 163.343 145.523,160.100 140.618,158.877 138.802 C 157.037 136.069,144.469 114.230,133.012 93.856 C 132.070 92.182,131.237 90.809,131.160 90.806 C 131.084 90.803,125.594 95.854,118.960 102.031 M282.427 152.644 C 279.277 153.000,258.601 158.132,258.034 158.699 C 257.972 158.761,258.160 159.051,258.453 159.344 L 258.985 159.876 263.542 158.645 C 266.049 157.968,272.330 156.282,277.500 154.898 C 282.670 153.514,286.990 152.347,287.100 152.306 C 287.543 152.141,285.717 152.273,282.427 152.644 M243.263 162.275 C 241.263 162.509,239.562 162.766,239.484 162.846 C 239.405 162.926,239.013 165.715,238.611 169.042 L 237.881 175.092 237.091 175.218 C 236.656 175.288,234.898 175.505,233.184 175.702 L 230.068 176.059 229.106 177.580 C 228.577 178.416,225.576 183.228,222.436 188.274 L 216.729 197.449 218.742 201.481 L 220.755 205.512 218.785 210.806 C 216.424 217.153,216.467 216.171,218.450 218.446 C 223.549 224.292,227.106 228.426,227.148 228.554 C 227.174 228.634,226.491 230.005,225.631 231.600 C 224.119 234.401,224.080 234.507,224.483 234.716 C 224.712 234.835,230.145 236.762,236.557 238.997 L 248.213 243.062 252.610 242.594 C 255.029 242.337,256.938 242.060,256.854 241.977 C 256.400 241.534,250.645 239.075,248.635 238.465 C 247.351 238.076,246.235 237.697,246.155 237.623 C 246.075 237.549,246.608 235.577,247.339 233.239 L 248.670 228.990 246.853 223.245 C 244.866 216.961,242.883 210.720,240.879 204.450 C 239.487 200.093,239.537 200.180,238.798 200.854 C 238.524 201.103,237.580 201.887,236.700 202.596 C 235.820 203.305,235.055 203.943,235.000 204.013 C 234.945 204.082,234.213 204.671,233.373 205.320 C 232.533 205.969,230.935 207.248,229.823 208.163 C 228.710 209.077,227.800 209.757,227.800 209.672 C 227.800 209.588,228.217 208.394,228.726 207.019 L 229.653 204.518 228.226 201.657 C 226.552 198.299,226.610 198.555,227.550 198.683 C 230.574 199.095,238.849 200.017,239.018 199.961 C 239.134 199.922,238.974 199.562,238.664 199.159 C 238.354 198.757,236.616 196.431,234.802 193.989 C 232.988 191.548,231.306 189.320,231.063 189.037 C 230.821 188.755,230.685 188.419,230.761 188.291 C 230.838 188.163,232.700 185.165,234.900 181.631 L 238.900 175.204 242.741 175.202 L 246.582 175.200 246.686 174.550 C 246.826 173.675,248.200 162.306,248.200 162.023 C 248.200 161.734,247.646 161.762,243.263 162.275 M301.147 164.291 C 298.973 164.537,297.161 164.775,297.121 164.820 C 297.080 164.864,296.729 165.535,296.340 166.312 L 295.633 167.724 298.810 169.562 C 300.557 170.573,302.064 171.400,302.159 171.400 C 302.311 171.400,305.800 164.234,305.800 163.922 C 305.800 163.764,305.779 163.765,301.147 164.291 M112.417 210.792 L 107.734 212.961 106.535 214.931 C 105.876 216.014,104.828 218.070,104.206 219.500 L 103.074 222.100 104.007 227.583 L 104.941 233.066 102.696 235.961 C 101.200 237.890,100.483 238.976,100.546 239.216 C 100.607 239.448,100.173 240.175,99.324 241.261 L 98.008 242.947 100.668 248.623 C 102.131 251.746,103.378 254.435,103.439 254.600 C 103.500 254.765,105.744 255.837,108.425 256.982 C 111.106 258.127,113.397 259.162,113.516 259.282 C 113.636 259.402,114.125 261.615,114.603 264.200 C 115.082 266.785,115.485 268.921,115.499 268.946 C 115.514 268.971,118.534 269.946,122.213 271.111 C 125.891 272.277,129.000 273.336,129.123 273.465 C 129.245 273.594,130.043 277.615,130.895 282.400 L 132.444 291.100 137.077 297.300 C 140.645 302.075,142.440 304.704,144.888 308.739 L 148.067 313.977 153.535 318.089 C 156.543 320.350,159.160 322.201,159.352 322.202 C 159.543 322.203,161.631 322.428,163.990 322.702 C 166.350 322.976,168.478 323.200,168.721 323.200 C 169.388 323.200,171.527 319.509,171.205 318.914 C 171.082 318.686,168.639 315.357,165.777 311.515 C 162.915 307.674,160.398 304.189,160.185 303.770 L 159.797 303.010 161.463 301.155 C 163.065 299.370,163.812 298.237,169.233 289.360 L 170.784 286.820 170.842 285.071 L 170.900 283.322 173.500 281.771 C 176.568 279.940,176.141 280.008,178.477 280.980 L 180.351 281.760 182.804 276.930 C 184.154 274.274,185.836 271.131,186.544 269.946 L 187.830 267.792 187.558 264.801 L 187.285 261.810 190.648 258.455 C 194.032 255.079,196.647 251.532,196.341 250.734 C 196.148 250.232,186.361 239.800,186.083 239.800 C 185.930 239.800,183.806 240.252,181.364 240.804 C 176.137 241.985,176.818 242.069,175.638 240.102 L 174.680 238.505 169.596 237.588 L 164.513 236.670 162.873 231.285 C 160.905 224.824,161.587 225.848,157.500 223.222 L 154.100 221.037 151.432 222.419 C 149.965 223.178,148.685 223.800,148.586 223.800 C 148.437 223.800,145.710 221.629,137.501 214.972 L 136.302 214.000 130.275 214.000 L 124.248 214.000 120.696 211.300 C 118.743 209.815,117.134 208.605,117.122 208.611 C 117.110 208.617,114.993 209.598,112.417 210.792 M264.315 235.510 C 262.340 237.293,261.973 237.675,262.352 237.550 C 262.436 237.523,264.915 238.933,267.862 240.683 L 273.219 243.867 272.350 244.783 C 271.002 246.204,266.672 250.898,264.835 252.929 L 263.181 254.759 265.097 264.929 C 266.150 270.523,267.146 275.770,267.309 276.589 C 267.550 277.790,267.558 278.123,267.354 278.311 C 267.214 278.439,263.865 281.009,259.910 284.022 C 255.956 287.035,252.606 289.590,252.467 289.700 C 252.268 289.857,252.647 291.246,254.211 296.095 C 255.309 299.502,256.171 302.388,256.125 302.507 C 256.079 302.626,253.726 306.029,250.895 310.070 C 248.065 314.110,245.804 317.471,245.872 317.539 C 245.979 317.645,249.519 317.412,253.000 317.068 C 253.667 317.003,254.376 316.777,254.800 316.495 C 255.185 316.240,262.835 311.250,271.800 305.408 C 284.172 297.346,288.084 294.703,288.032 294.443 C 287.860 293.576,278.742 263.681,278.606 263.535 C 278.521 263.445,277.530 263.833,276.404 264.398 C 275.279 264.963,274.334 265.397,274.306 265.362 C 274.277 265.328,273.964 263.770,273.610 261.900 C 272.640 256.770,272.201 254.533,272.096 254.194 C 272.035 253.998,273.827 251.914,277.080 248.398 C 281.444 243.681,282.112 242.877,281.829 242.685 C 281.188 242.250,266.615 233.600,266.523 233.600 C 266.472 233.600,265.478 234.459,264.315 235.510 " stroke="none" fill="#048e41" fill-rule="evenodd"></path><path id="path1" d="M0.000 34.500 L 0.000 69.000 200.000 69.000 L 400.000 69.000 400.000 34.500 L 400.000 0.000 200.000 0.000 L 0.000 0.000 0.000 34.500 M0.000 69.600 C 0.000 69.733,66.800 69.800,200.000 69.800 C 333.200 69.800,400.000 69.733,400.000 69.600 C 400.000 69.467,333.200 69.400,200.000 69.400 C 66.800 69.400,0.000 69.467,0.000 69.600 M254.400 84.400 C 254.635 84.730,254.872 85.000,254.927 85.000 C 254.982 85.000,254.835 84.730,254.600 84.400 C 254.365 84.070,254.128 83.800,254.073 83.800 C 254.018 83.800,254.165 84.070,254.400 84.400 M129.789 91.750 L 129.100 92.500 129.850 91.811 C 130.548 91.169,130.692 91.000,130.539 91.000 C 130.506 91.000,130.168 91.338,129.789 91.750 M126.789 94.550 L 126.100 95.300 126.850 94.611 C 127.548 93.969,127.692 93.800,127.539 93.800 C 127.506 93.800,127.168 94.138,126.789 94.550 M123.789 97.350 L 123.100 98.100 123.850 97.411 C 124.548 96.769,124.692 96.600,124.539 96.600 C 124.506 96.600,124.168 96.938,123.789 97.350 M120.989 99.950 L 120.300 100.700 121.050 100.011 C 121.748 99.369,121.892 99.200,121.739 99.200 C 121.706 99.200,121.368 99.538,120.989 99.950 M269.285 108.300 C 269.285 110.610,269.314 111.528,269.349 110.339 C 269.385 109.151,269.385 107.261,269.349 106.139 C 269.313 105.018,269.284 105.990,269.285 108.300 M115.087 105.450 L 114.500 106.100 115.150 105.513 C 115.508 105.190,115.800 104.897,115.800 104.863 C 115.800 104.708,115.635 104.844,115.087 105.450 M265.365 114.966 C 264.851 115.370,264.377 115.754,264.311 115.820 C 264.246 115.887,264.595 117.189,265.087 118.714 C 265.579 120.240,265.911 121.536,265.825 121.594 C 265.738 121.652,263.775 123.025,261.461 124.644 L 257.254 127.588 250.777 126.217 C 247.215 125.463,244.232 124.886,244.149 124.935 C 244.065 124.985,243.604 125.852,243.124 126.863 C 242.378 128.434,240.013 133.356,233.450 147.000 C 232.736 148.485,231.660 150.734,231.060 151.999 C 230.460 153.263,229.946 154.320,229.918 154.348 C 229.890 154.376,226.635 153.950,222.684 153.400 C 218.733 152.850,215.358 152.401,215.184 152.400 C 214.992 152.400,214.664 152.853,214.349 153.550 C 214.064 154.183,213.075 156.320,212.150 158.300 C 211.225 160.280,209.544 163.885,208.414 166.311 L 206.360 170.721 203.038 173.611 C 199.220 176.931,197.211 178.704,192.517 182.900 C 187.445 187.433,186.110 188.600,186.000 188.594 C 185.945 188.591,183.785 187.090,181.200 185.259 C 166.612 174.925,166.401 174.788,167.650 176.468 C 167.908 176.816,168.376 177.685,168.690 178.400 C 169.003 179.115,169.314 179.745,169.380 179.800 C 169.446 179.855,169.768 180.485,170.095 181.200 C 170.423 181.915,170.850 182.715,171.045 182.977 C 171.240 183.239,171.400 183.577,171.400 183.727 C 171.400 183.877,171.473 184.000,171.563 184.000 C 171.653 184.000,171.879 184.293,172.066 184.650 C 172.253 185.008,172.681 185.742,173.016 186.283 C 173.456 186.991,173.593 187.410,173.507 187.783 C 173.420 188.159,173.441 188.220,173.583 188.006 C 173.690 187.844,173.814 187.754,173.857 187.806 C 173.900 187.858,174.274 188.418,174.688 189.052 C 175.102 189.685,175.549 190.270,175.682 190.352 C 175.815 190.433,176.042 190.793,176.186 191.150 C 176.330 191.508,176.528 191.800,176.624 191.800 C 176.721 191.800,176.800 191.918,176.800 192.062 C 176.800 192.207,176.980 192.518,177.200 192.754 C 177.420 192.990,177.600 193.232,177.600 193.292 C 177.600 193.711,178.450 194.150,179.295 194.167 C 180.256 194.187,180.800 194.449,180.800 194.893 C 180.800 195.028,180.980 195.301,181.200 195.500 C 181.420 195.699,181.600 195.983,181.600 196.131 C 181.600 196.279,181.690 196.400,181.800 196.400 C 181.910 196.400,182.000 196.491,182.000 196.602 C 182.000 196.714,182.449 197.276,182.998 197.852 C 183.547 198.429,183.997 199.013,183.998 199.150 C 183.999 199.288,184.113 199.404,184.250 199.409 C 184.525 199.420,186.215 201.438,186.444 202.029 C 186.523 202.233,186.715 202.400,186.872 202.400 C 187.488 202.400,187.350 202.999,186.538 203.848 C 183.221 207.316,182.954 207.648,183.124 208.091 C 183.221 208.342,183.296 208.368,183.408 208.188 C 183.494 208.047,183.712 208.000,183.913 208.077 C 184.183 208.181,184.211 208.269,184.033 208.447 C 183.905 208.575,183.803 208.774,183.806 208.890 C 183.810 209.005,183.943 208.928,184.102 208.718 C 184.380 208.350,184.420 208.366,185.108 209.095 C 185.614 209.631,185.763 209.917,185.613 210.067 C 185.496 210.184,185.403 210.375,185.406 210.490 C 185.410 210.606,185.543 210.528,185.702 210.318 C 185.980 209.950,186.020 209.966,186.708 210.695 C 187.214 211.231,187.363 211.517,187.213 211.667 C 187.096 211.784,187.003 211.975,187.006 212.090 C 187.010 212.206,187.143 212.128,187.303 211.917 C 187.613 211.507,188.337 212.039,188.915 213.100 C 189.035 213.320,189.235 213.479,189.359 213.452 C 189.485 213.426,189.535 213.538,189.471 213.702 C 189.399 213.891,189.477 214.000,189.686 214.000 C 190.330 214.000,191.479 214.911,191.267 215.254 C 191.208 215.349,191.326 215.398,191.530 215.363 C 191.787 215.319,191.920 215.439,191.964 215.753 C 192.000 216.002,192.113 216.154,192.217 216.090 C 192.471 215.933,193.659 217.143,193.501 217.398 C 193.433 217.509,193.524 217.600,193.704 217.600 C 194.391 217.600,195.508 219.064,194.960 219.247 C 194.773 219.309,194.773 219.360,194.960 219.475 C 195.092 219.557,195.200 219.528,195.200 219.412 C 195.200 219.056,195.991 219.176,196.446 219.600 C 196.682 219.820,197.112 220.000,197.402 220.000 C 197.693 220.000,198.110 220.201,198.337 220.450 C 198.562 220.697,199.028 221.124,199.373 221.398 C 199.718 221.672,200.000 222.009,200.000 222.148 C 200.000 222.287,200.102 222.400,200.227 222.400 C 200.352 222.400,200.663 222.625,200.918 222.900 C 201.216 223.223,201.597 223.400,201.990 223.400 C 202.326 223.400,202.600 223.490,202.600 223.600 C 202.600 223.710,202.745 223.800,202.921 223.800 C 203.131 223.800,203.201 223.909,203.123 224.113 C 203.035 224.342,203.096 224.397,203.351 224.318 C 203.543 224.258,203.835 224.296,204.000 224.402 C 204.233 224.551,204.177 224.595,203.750 224.597 C 203.061 224.601,203.028 224.921,203.705 225.050 C 204.082 225.122,207.904 224.801,209.352 224.576 C 209.828 224.502,209.999 224.806,210.601 226.804 C 211.153 228.634,211.341 229.028,211.711 229.121 C 212.003 229.194,212.197 229.434,212.273 229.816 C 212.372 230.309,212.486 230.400,213.003 230.400 C 213.341 230.400,213.810 230.580,214.046 230.800 C 214.320 231.055,214.752 231.200,215.238 231.200 C 215.867 231.200,216.000 231.270,216.000 231.600 C 216.000 231.869,216.133 232.000,216.408 232.000 C 216.633 232.000,217.010 232.180,217.246 232.400 C 217.528 232.662,217.955 232.801,218.488 232.803 C 219.086 232.805,219.221 232.857,219.000 233.000 C 218.835 233.107,218.799 233.195,218.919 233.197 C 219.040 233.199,219.237 233.403,219.356 233.650 C 219.498 233.945,219.582 233.996,219.601 233.800 C 219.622 233.570,219.660 233.582,219.767 233.852 C 219.999 234.438,220.714 233.760,221.491 232.218 L 222.172 230.865 221.060 229.583 C 219.303 227.557,218.151 226.208,216.887 224.700 C 216.242 223.930,214.837 222.285,213.764 221.045 L 211.814 218.789 212.384 217.245 C 212.697 216.395,213.605 213.948,214.403 211.807 L 215.852 207.913 213.842 203.888 L 211.833 199.863 213.410 197.281 C 214.277 195.862,217.265 191.055,220.051 186.600 L 225.115 178.500 226.850 178.442 L 228.585 178.385 229.314 177.204 C 230.038 176.030,230.049 176.023,231.171 175.901 C 232.941 175.710,233.149 175.635,233.258 175.152 C 233.315 174.903,233.613 172.556,233.921 169.936 L 234.481 165.172 238.291 163.306 C 240.386 162.280,243.495 160.812,245.200 160.045 L 248.300 158.650 252.644 158.185 L 256.988 157.719 257.466 158.168 L 257.944 158.617 264.222 156.925 C 278.835 152.985,278.622 153.035,282.700 152.604 C 284.790 152.383,286.748 152.159,287.050 152.106 L 287.600 152.010 287.600 157.483 L 287.600 162.957 291.640 165.308 C 293.862 166.602,295.709 167.579,295.745 167.480 C 295.781 167.381,296.100 166.715,296.455 166.000 L 297.100 164.700 299.100 164.469 C 300.200 164.342,301.288 164.229,301.518 164.219 C 301.833 164.205,301.997 163.989,302.180 163.350 C 302.510 162.200,305.716 151.924,309.491 139.914 C 310.319 137.282,310.968 135.101,310.933 135.067 C 310.870 135.003,306.008 135.914,300.700 136.984 C 293.738 138.387,272.943 142.408,272.913 142.356 C 272.695 141.975,266.184 121.750,266.233 121.605 C 266.270 121.496,266.991 120.926,267.835 120.338 L 269.371 119.270 267.691 116.999 C 266.401 115.256,266.062 114.667,266.230 114.464 C 266.564 114.062,266.386 114.165,265.365 114.966 M313.744 148.393 C 313.685 148.617,313.709 148.756,313.798 148.701 C 313.886 148.647,314.015 148.750,314.084 148.930 C 314.153 149.110,314.254 149.213,314.308 149.158 C 314.363 149.104,314.282 148.818,314.129 148.523 C 313.869 148.023,313.843 148.014,313.744 148.393 M303.600 163.791 C 303.765 163.903,304.072 163.995,304.283 163.997 C 304.795 164.001,304.635 163.887,303.900 163.722 C 303.462 163.624,303.381 163.643,303.600 163.791 M320.219 167.077 C 320.042 167.290,320.060 167.380,320.295 167.470 C 320.463 167.535,320.600 167.686,320.600 167.806 C 320.600 167.925,320.506 167.966,320.391 167.895 C 320.276 167.824,320.074 167.852,319.941 167.957 C 319.809 168.062,319.543 168.123,319.350 168.092 C 319.155 168.061,319.000 168.161,319.000 168.318 C 319.000 168.473,318.905 168.600,318.788 168.600 C 318.672 168.600,318.628 168.516,318.691 168.414 C 318.755 168.311,318.734 168.183,318.645 168.128 C 318.556 168.073,318.475 168.341,318.465 168.724 C 318.443 169.555,318.418 169.586,317.734 169.643 C 317.297 169.679,317.224 169.760,317.329 170.092 C 317.442 170.449,317.419 170.465,317.129 170.224 C 316.948 170.074,316.800 169.837,316.800 169.697 C 316.800 169.557,316.660 169.389,316.490 169.324 C 316.319 169.258,316.230 169.287,316.293 169.388 C 316.518 169.753,315.966 169.831,315.587 169.489 C 315.374 169.296,315.200 169.225,315.200 169.332 C 315.200 169.589,316.812 170.503,317.219 170.477 C 317.666 170.449,318.825 169.561,318.745 169.308 C 318.708 169.194,318.886 168.901,319.139 168.657 C 319.476 168.334,319.600 168.293,319.600 168.507 C 319.600 168.668,319.520 168.800,319.421 168.800 C 319.323 168.800,319.189 168.940,319.123 169.111 C 319.052 169.297,319.363 169.164,319.902 168.777 C 320.791 168.139,321.000 167.747,320.586 167.492 C 320.469 167.419,320.421 167.234,320.480 167.080 C 320.617 166.724,320.513 166.723,320.219 167.077 M317.400 167.474 C 317.400 167.803,317.759 168.108,317.937 167.930 C 317.998 167.869,317.902 167.673,317.724 167.495 C 317.444 167.216,317.400 167.213,317.400 167.474 M144.500 168.903 C 143.070 169.042,141.743 169.221,141.550 169.300 C 141.188 169.448,141.065 170.293,141.377 170.486 C 141.474 170.546,141.762 171.248,142.017 172.047 C 142.272 172.846,142.598 173.678,142.740 173.895 C 142.883 174.111,143.000 174.483,143.000 174.720 C 143.000 174.957,143.135 175.474,143.300 175.869 C 143.655 176.718,143.703 177.256,143.384 176.800 C 143.224 176.571,143.206 176.618,143.312 177.000 C 143.498 177.674,143.585 177.740,143.830 177.394 C 144.001 177.153,144.017 177.163,143.923 177.455 C 143.856 177.664,143.969 177.969,144.199 178.199 C 144.414 178.414,144.644 178.840,144.709 179.145 C 144.854 179.815,145.436 181.231,145.529 181.138 C 145.566 181.101,145.636 180.763,145.684 180.386 C 145.733 180.008,145.793 179.655,145.817 179.600 C 145.841 179.545,145.878 179.410,145.900 179.300 C 145.921 179.190,145.993 178.965,146.059 178.800 C 146.191 178.473,148.600 168.913,148.600 168.719 C 148.600 168.557,147.578 168.603,144.500 168.903 M165.008 174.290 C 164.875 174.450,164.809 174.743,164.860 174.940 C 164.938 175.240,164.957 175.229,164.977 174.878 C 164.995 174.550,165.113 174.467,165.501 174.510 C 165.777 174.540,165.954 174.487,165.895 174.391 C 165.836 174.296,165.640 174.274,165.461 174.343 C 165.243 174.426,165.182 174.390,165.279 174.234 C 165.483 173.904,165.297 173.943,165.008 174.290 M169.600 183.169 C 169.600 183.434,170.387 184.079,170.533 183.933 C 170.605 183.861,170.501 183.622,170.301 183.401 C 169.924 182.984,169.600 182.877,169.600 183.169 M257.938 241.408 L 257.032 242.206 252.621 242.689 C 248.529 243.137,248.152 243.149,247.412 242.858 L 246.614 242.545 245.012 243.989 C 243.972 244.926,243.346 245.656,243.228 246.067 C 243.128 246.415,242.551 248.320,241.945 250.300 C 239.388 258.663,238.134 262.795,237.698 264.293 L 237.235 265.887 237.717 266.334 C 238.199 266.780,238.416 266.696,237.960 266.240 C 237.654 265.934,237.762 265.938,239.371 266.292 C 241.933 266.855,242.942 267.016,248.200 267.704 C 251.115 268.085,254.063 268.397,254.750 268.398 C 255.449 268.399,256.000 268.488,256.000 268.600 C 256.000 268.721,256.868 268.800,258.204 268.800 C 260.387 268.800,260.407 268.796,260.302 268.350 C 260.244 268.103,259.746 265.484,259.195 262.530 L 258.193 257.160 258.831 256.430 C 259.182 256.029,261.431 253.595,263.829 251.023 C 266.228 248.451,268.142 246.267,268.082 246.171 C 267.991 246.024,260.581 241.538,259.272 240.839 C 258.900 240.640,258.728 240.713,257.938 241.408 " stroke="none" fill="#48d0eb" fill-rule="evenodd"></path><path id="path2" d="M260.770 118.107 L 257.241 120.597 253.470 119.806 C 251.397 119.371,248.459 118.751,246.943 118.427 L 244.186 117.839 243.564 119.069 C 243.222 119.746,240.026 126.371,236.462 133.792 C 232.898 141.213,229.948 147.319,229.906 147.361 C 229.864 147.403,226.488 146.969,222.405 146.395 C 218.321 145.822,214.953 145.386,214.920 145.426 C 214.887 145.467,212.943 149.595,210.601 154.600 L 206.342 163.700 204.605 165.200 C 203.650 166.025,199.545 169.626,195.484 173.201 C 191.423 176.777,187.656 180.088,187.113 180.559 C 186.571 181.029,186.004 181.368,185.855 181.310 C 185.705 181.253,179.119 176.618,171.220 171.010 L 156.857 160.814 139.478 162.211 C 129.552 163.009,121.930 163.705,121.703 163.835 C 121.354 164.035,107.210 174.908,91.700 186.899 C 87.967 189.785,74.486 200.183,72.239 201.909 C 72.205 201.935,72.675 205.004,73.283 208.728 C 73.891 212.453,75.426 221.964,76.693 229.863 L 78.998 244.227 86.636 258.794 L 94.275 273.361 107.970 287.631 L 121.665 301.900 137.983 310.762 C 159.218 322.296,158.000 321.640,158.000 321.541 C 158.000 321.494,155.764 319.770,153.031 317.711 L 148.062 313.968 144.885 308.734 C 142.440 304.704,140.643 302.074,137.077 297.300 L 132.444 291.100 130.895 282.400 C 130.043 277.615,129.245 273.594,129.123 273.465 C 129.000 273.336,125.891 272.277,122.213 271.111 C 118.534 269.946,115.514 268.971,115.499 268.946 C 115.485 268.921,115.082 266.785,114.603 264.200 C 114.125 261.615,113.636 259.402,113.516 259.282 C 113.397 259.162,111.106 258.127,108.425 256.982 C 105.744 255.837,103.500 254.765,103.439 254.600 C 103.378 254.435,102.131 251.746,100.668 248.623 L 98.008 242.947 99.324 241.261 C 100.173 240.175,100.607 239.448,100.546 239.216 C 100.483 238.976,101.200 237.890,102.696 235.961 L 104.941 233.066 104.007 227.583 L 103.074 222.100 104.206 219.500 C 104.828 218.070,105.876 216.015,106.533 214.934 L 107.730 212.968 111.615 211.172 C 113.752 210.184,115.879 209.208,116.342 209.003 L 117.184 208.630 120.716 211.315 L 124.248 214.000 130.275 214.000 L 136.302 214.000 137.501 214.972 C 145.710 221.629,148.437 223.800,148.586 223.800 C 148.685 223.800,149.965 223.178,151.432 222.419 L 154.100 221.037 157.500 223.222 C 161.587 225.848,160.905 224.824,162.873 231.285 L 164.513 236.670 169.596 237.588 L 174.680 238.505 175.638 240.102 C 176.818 242.069,176.137 241.985,181.364 240.804 C 183.806 240.252,185.930 239.800,186.083 239.800 C 186.361 239.800,196.148 250.232,196.341 250.734 C 196.647 251.532,194.032 255.079,190.648 258.455 L 187.285 261.810 187.558 264.801 L 187.830 267.792 186.544 269.946 C 185.836 271.131,184.154 274.274,182.804 276.930 L 180.351 281.760 178.477 280.980 C 176.141 280.008,176.568 279.940,173.500 281.771 L 170.900 283.322 170.842 285.071 L 170.784 286.820 169.233 289.360 C 163.812 298.237,163.065 299.370,161.463 301.155 L 159.797 303.010 160.185 303.770 C 160.398 304.189,162.915 307.674,165.777 311.515 C 168.639 315.357,171.082 318.686,171.205 318.914 C 171.396 319.267,171.260 319.616,170.290 321.273 C 169.664 322.343,169.185 323.244,169.226 323.276 C 169.267 323.307,179.005 324.430,190.866 325.770 L 212.432 328.207 232.866 322.695 C 254.525 316.853,254.132 316.963,252.900 317.086 C 249.895 317.388,245.973 317.640,245.871 317.538 C 245.804 317.471,248.065 314.110,250.895 310.070 C 253.726 306.029,256.079 302.626,256.125 302.507 C 256.171 302.388,255.309 299.502,254.211 296.095 C 252.647 291.246,252.268 289.857,252.467 289.700 C 252.606 289.590,255.956 287.035,259.910 284.022 C 263.865 281.009,267.214 278.439,267.354 278.311 C 267.558 278.123,267.550 277.790,267.309 276.589 C 267.146 275.770,266.150 270.523,265.097 264.929 L 263.181 254.759 264.835 252.929 C 266.678 250.891,271.007 246.199,272.354 244.779 L 273.228 243.857 270.664 242.346 C 269.254 241.515,266.816 240.066,265.246 239.127 L 262.392 237.420 260.696 238.932 C 259.763 239.764,259.003 240.503,259.006 240.573 C 259.010 240.643,260.997 241.870,263.423 243.300 C 265.849 244.730,267.915 245.999,268.015 246.119 C 268.136 246.265,266.731 247.911,263.833 251.019 C 261.433 253.594,259.182 256.029,258.831 256.430 L 258.193 257.160 259.195 262.530 C 259.746 265.484,260.244 268.103,260.302 268.350 C 260.407 268.796,260.387 268.800,258.204 268.800 C 256.868 268.800,256.000 268.721,256.000 268.600 C 256.000 268.488,255.449 268.399,254.750 268.398 C 254.063 268.397,251.115 268.085,248.200 267.704 C 242.942 267.016,241.933 266.855,239.371 266.292 C 237.762 265.938,237.654 265.934,237.960 266.240 C 238.424 266.704,238.194 266.775,237.702 266.320 C 237.221 265.874,237.214 265.829,237.484 264.979 C 237.639 264.496,238.128 262.885,238.573 261.400 C 239.482 258.360,241.935 250.283,242.823 247.400 C 243.404 245.517,243.423 245.487,245.019 244.000 L 246.629 242.500 235.764 238.716 C 229.789 236.635,224.712 234.835,224.483 234.716 C 224.080 234.507,224.119 234.401,225.631 231.600 C 226.491 230.005,227.174 228.634,227.148 228.554 C 227.106 228.426,223.549 224.292,218.450 218.446 C 216.467 216.171,216.424 217.153,218.785 210.806 L 220.755 205.512 218.743 201.482 L 216.730 197.452 219.635 192.776 C 221.233 190.204,223.901 185.914,225.564 183.242 L 228.588 178.385 226.851 178.442 L 225.115 178.500 220.051 186.600 C 217.265 191.055,214.277 195.862,213.410 197.281 L 211.833 199.863 213.842 203.888 L 215.852 207.913 214.403 211.807 C 213.605 213.948,212.697 216.395,212.384 217.245 L 211.814 218.789 213.764 221.045 C 214.837 222.285,216.242 223.930,216.887 224.700 C 218.151 226.208,219.303 227.557,221.060 229.583 L 222.172 230.865 221.491 232.218 C 220.714 233.760,219.999 234.438,219.767 233.852 C 219.660 233.582,219.622 233.570,219.601 233.800 C 219.582 233.996,219.498 233.945,219.356 233.650 C 219.237 233.403,219.040 233.199,218.919 233.197 C 218.799 233.195,218.835 233.107,219.000 233.000 C 219.221 232.857,219.086 232.805,218.488 232.803 C 217.955 232.801,217.528 232.662,217.246 232.400 C 217.010 232.180,216.633 232.000,216.408 232.000 C 216.133 232.000,216.000 231.869,216.000 231.600 C 216.000 231.270,215.867 231.200,215.238 231.200 C 214.752 231.200,214.320 231.055,214.046 230.800 C 213.810 230.580,213.341 230.400,213.003 230.400 C 212.486 230.400,212.372 230.309,212.273 229.816 C 212.197 229.434,212.003 229.194,211.711 229.121 C 211.341 229.028,211.153 228.634,210.601 226.804 C 209.999 224.806,209.828 224.502,209.352 224.576 C 207.904 224.801,204.082 225.122,203.705 225.050 C 203.028 224.921,203.061 224.601,203.750 224.597 C 204.177 224.595,204.233 224.551,204.000 224.402 C 203.835 224.296,203.543 224.258,203.351 224.318 C 203.096 224.397,203.035 224.342,203.123 224.113 C 203.201 223.909,203.131 223.800,202.921 223.800 C 202.745 223.800,202.600 223.710,202.600 223.600 C 202.600 223.490,202.326 223.400,201.990 223.400 C 201.597 223.400,201.216 223.223,200.918 222.900 C 200.663 222.625,200.352 222.400,200.227 222.400 C 200.102 222.400,200.000 222.287,200.000 222.148 C 200.000 222.009,199.718 221.672,199.373 221.398 C 199.028 221.124,198.562 220.697,198.337 220.450 C 198.110 220.201,197.693 220.000,197.402 220.000 C 197.112 220.000,196.682 219.820,196.446 219.600 C 195.969 219.155,195.277 219.070,195.153 219.440 C 195.091 219.627,195.040 219.627,194.925 219.440 C 194.843 219.308,194.872 219.200,194.988 219.200 C 195.366 219.200,195.213 218.782,194.615 218.185 C 194.294 217.863,193.884 217.600,193.704 217.600 C 193.524 217.600,193.433 217.509,193.501 217.398 C 193.659 217.143,192.471 215.933,192.217 216.090 C 192.113 216.154,192.000 216.002,191.964 215.753 C 191.920 215.439,191.787 215.319,191.530 215.363 C 191.326 215.398,191.208 215.349,191.267 215.254 C 191.479 214.911,190.330 214.000,189.686 214.000 C 189.477 214.000,189.399 213.891,189.471 213.702 C 189.535 213.538,189.485 213.426,189.359 213.452 C 189.235 213.479,189.035 213.320,188.915 213.100 C 188.337 212.039,187.613 211.507,187.303 211.917 C 187.143 212.128,187.010 212.206,187.006 212.090 C 187.003 211.974,187.096 211.784,187.213 211.667 C 187.363 211.517,187.214 211.231,186.708 210.695 C 186.020 209.966,185.980 209.950,185.702 210.318 C 185.543 210.528,185.410 210.606,185.406 210.490 C 185.403 210.375,185.501 210.179,185.624 210.056 C 185.789 209.891,185.601 209.592,184.906 208.916 C 183.977 208.014,183.403 207.760,183.397 208.250 C 183.394 208.512,183.009 208.032,183.003 207.759 C 183.000 207.625,184.713 205.725,186.538 203.838 C 187.350 202.998,187.489 202.400,186.872 202.400 C 186.715 202.400,186.523 202.233,186.444 202.029 C 186.215 201.438,184.525 199.420,184.250 199.409 C 184.113 199.404,183.999 199.288,183.998 199.150 C 183.997 199.013,183.547 198.429,182.998 197.852 C 182.449 197.276,182.000 196.714,182.000 196.602 C 182.000 196.491,181.910 196.400,181.800 196.400 C 181.690 196.400,181.600 196.279,181.600 196.131 C 181.600 195.983,181.420 195.699,181.200 195.500 C 180.980 195.301,180.800 195.028,180.800 194.893 C 180.800 194.449,180.256 194.187,179.295 194.167 C 178.450 194.150,177.600 193.711,177.600 193.292 C 177.600 193.232,177.420 192.990,177.200 192.754 C 176.980 192.518,176.800 192.207,176.800 192.062 C 176.800 191.918,176.721 191.800,176.624 191.800 C 176.528 191.800,176.330 191.508,176.186 191.150 C 176.042 190.793,175.815 190.433,175.682 190.352 C 175.549 190.270,175.102 189.685,174.688 189.052 C 174.274 188.418,173.900 187.858,173.857 187.806 C 173.814 187.754,173.690 187.844,173.583 188.006 C 173.441 188.220,173.420 188.159,173.507 187.783 C 173.593 187.410,173.456 186.991,173.016 186.283 C 172.681 185.742,172.253 185.008,172.066 184.650 C 171.879 184.293,171.653 184.000,171.563 184.000 C 171.473 184.000,171.400 183.877,171.400 183.727 C 171.400 183.577,171.240 183.239,171.045 182.977 C 170.850 182.715,170.423 181.915,170.095 181.200 C 169.768 180.485,169.446 179.855,169.380 179.800 C 169.314 179.745,169.003 179.115,168.690 178.400 C 168.376 177.685,167.908 176.816,167.650 176.468 C 166.401 174.788,166.612 174.925,181.200 185.259 C 183.785 187.090,185.945 188.591,186.000 188.594 C 186.110 188.600,187.445 187.433,192.517 182.900 C 197.211 178.704,199.220 176.931,203.038 173.611 L 206.360 170.721 208.414 166.311 C 209.544 163.885,211.225 160.280,212.150 158.300 C 213.075 156.320,214.064 154.183,214.349 153.550 C 214.664 152.853,214.992 152.400,215.184 152.400 C 215.358 152.401,218.733 152.850,222.684 153.400 C 226.635 153.950,229.890 154.376,229.918 154.348 C 229.946 154.320,230.460 153.263,231.060 151.999 C 231.660 150.734,232.736 148.485,233.450 147.000 C 240.013 133.356,242.378 128.434,243.124 126.863 C 243.604 125.852,244.065 124.985,244.149 124.935 C 244.232 124.886,247.215 125.463,250.777 126.217 L 257.254 127.588 261.461 124.644 C 263.775 123.025,265.738 121.652,265.825 121.594 C 265.911 121.536,265.580 120.245,265.090 118.725 C 264.600 117.206,264.250 115.881,264.312 115.781 C 264.496 115.482,264.433 115.524,260.770 118.107 M236.893 163.997 L 234.485 165.139 233.923 169.919 C 233.614 172.549,233.312 174.913,233.253 175.173 L 233.145 175.647 234.722 175.503 C 235.590 175.425,236.656 175.301,237.090 175.228 L 237.881 175.096 238.619 168.998 C 239.025 165.644,239.344 162.890,239.329 162.878 C 239.313 162.866,238.217 163.369,236.893 163.997 M148.600 168.719 C 148.600 168.913,146.191 178.473,146.059 178.800 C 145.993 178.965,145.921 179.190,145.900 179.300 C 145.878 179.410,145.841 179.545,145.817 179.600 C 145.793 179.655,145.733 180.008,145.684 180.386 C 145.636 180.763,145.566 181.101,145.529 181.138 C 145.436 181.231,144.854 179.815,144.709 179.145 C 144.644 178.840,144.414 178.414,144.199 178.199 C 143.969 177.969,143.856 177.664,143.923 177.455 C 144.017 177.163,144.001 177.153,143.830 177.394 C 143.585 177.740,143.498 177.674,143.312 177.000 C 143.206 176.618,143.224 176.571,143.384 176.800 C 143.703 177.256,143.655 176.718,143.300 175.869 C 143.135 175.474,143.000 174.957,143.000 174.720 C 143.000 174.483,142.883 174.111,142.740 173.895 C 142.598 173.678,142.272 172.846,142.017 172.047 C 141.762 171.248,141.474 170.546,141.377 170.486 C 141.065 170.293,141.188 169.448,141.550 169.300 C 142.252 169.013,148.600 168.490,148.600 168.719 M165.279 174.234 C 165.182 174.390,165.243 174.426,165.461 174.343 C 165.640 174.274,165.836 174.296,165.895 174.391 C 165.954 174.487,165.777 174.540,165.501 174.510 C 165.113 174.467,164.995 174.550,164.977 174.878 C 164.957 175.229,164.938 175.240,164.860 174.940 C 164.809 174.743,164.875 174.450,165.008 174.290 C 165.297 173.943,165.483 173.904,165.279 174.234 M170.301 183.401 C 170.501 183.622,170.605 183.861,170.533 183.933 C 170.387 184.079,169.600 183.434,169.600 183.169 C 169.600 182.877,169.924 182.984,170.301 183.401 " stroke="none" fill="#04598d" fill-rule="evenodd"></path><path id="path3" d="M0.000 69.200 C 0.000 69.333,66.800 69.400,200.000 69.400 C 333.200 69.400,400.000 69.333,400.000 69.200 C 400.000 69.067,333.200 69.000,200.000 69.000 C 66.800 69.000,0.000 69.067,0.000 69.200 M0.000 234.900 L 0.000 400.000 200.000 400.000 L 400.000 400.000 400.000 234.900 L 400.000 69.800 200.000 69.800 L 0.000 69.800 0.000 234.900 M221.674 74.700 C 227.958 76.295,237.644 78.756,243.198 80.168 L 253.296 82.736 254.898 84.851 C 255.779 86.015,257.310 88.069,258.300 89.416 C 259.290 90.763,262.193 94.657,264.750 98.070 L 269.400 104.275 269.393 108.288 L 269.387 112.300 267.781 113.390 C 266.897 113.989,266.139 114.537,266.095 114.608 C 266.052 114.678,266.771 115.756,267.693 117.003 L 269.371 119.270 267.835 120.338 C 266.991 120.926,266.270 121.496,266.233 121.605 C 266.184 121.750,272.695 141.975,272.913 142.356 C 272.943 142.408,293.738 138.387,300.700 136.984 C 306.008 135.914,310.870 135.003,310.933 135.067 C 310.968 135.101,310.319 137.282,309.491 139.914 C 307.064 147.636,306.150 150.555,304.207 156.800 C 303.197 160.045,302.288 162.961,302.186 163.280 C 301.911 164.138,301.914 164.141,303.050 163.979 C 304.765 163.734,306.239 163.774,306.584 164.075 C 307.533 164.899,313.573 168.347,313.754 168.166 C 313.888 168.032,314.006 168.047,314.108 168.213 C 314.207 168.374,314.180 168.411,314.031 168.319 C 313.904 168.241,313.800 168.269,313.800 168.383 C 313.800 168.586,314.917 169.260,315.077 169.154 C 315.122 169.124,315.325 169.244,315.529 169.420 C 316.130 169.937,316.364 170.021,316.517 169.772 C 316.599 169.640,316.576 169.591,316.464 169.660 C 316.356 169.727,316.267 169.660,316.267 169.510 C 316.267 169.358,316.391 169.286,316.549 169.347 C 316.707 169.407,316.790 169.617,316.737 169.820 C 316.630 170.227,317.090 170.739,317.283 170.428 C 317.348 170.322,317.354 170.113,317.296 169.962 C 317.225 169.777,317.366 169.674,317.729 169.643 C 318.418 169.586,318.443 169.556,318.465 168.724 C 318.475 168.341,318.556 168.073,318.645 168.128 C 318.734 168.183,318.755 168.311,318.691 168.414 C 318.628 168.516,318.672 168.600,318.788 168.600 C 318.905 168.600,319.000 168.470,319.000 168.311 C 319.000 168.132,319.149 168.052,319.396 168.099 C 319.613 168.141,319.844 168.091,319.908 167.988 C 319.971 167.884,320.131 167.803,320.262 167.806 C 320.393 167.809,320.343 167.904,320.150 168.016 C 319.957 168.128,319.800 168.325,319.800 168.454 C 319.800 168.583,320.003 168.484,320.250 168.233 C 320.674 167.803,320.680 167.762,320.348 167.515 C 320.017 167.268,320.016 167.236,320.336 166.976 C 320.550 166.803,320.622 166.791,320.530 166.944 C 320.449 167.079,320.515 167.394,320.675 167.644 C 320.965 168.097,328.800 194.257,328.800 194.772 C 328.800 195.011,327.435 196.870,324.331 200.856 C 323.799 201.540,322.993 202.595,322.541 203.200 C 322.089 203.805,320.089 206.415,318.098 209.000 C 316.107 211.585,313.222 215.351,311.689 217.369 C 308.291 221.840,306.618 224.029,299.443 233.400 C 296.368 237.415,293.876 240.728,293.905 240.762 C 293.933 240.795,297.184 239.526,301.128 237.940 C 315.978 231.969,325.627 228.160,325.704 228.237 C 325.748 228.281,323.713 233.893,321.181 240.709 C 318.650 247.524,315.553 255.867,314.298 259.250 C 311.718 266.207,312.624 264.704,306.500 272.187 C 305.840 272.994,305.030 273.988,304.700 274.397 C 304.370 274.806,303.380 276.021,302.500 277.097 C 301.620 278.173,300.630 279.388,300.300 279.797 C 299.970 280.206,298.980 281.423,298.100 282.503 C 297.220 283.582,296.102 284.968,295.615 285.583 C 295.128 286.197,294.673 286.745,294.603 286.800 C 294.534 286.855,293.539 288.070,292.392 289.500 C 291.245 290.930,290.197 292.215,290.063 292.355 C 289.929 292.495,289.403 293.139,288.895 293.786 C 288.107 294.788,287.256 295.426,283.135 298.097 C 280.476 299.821,276.185 302.614,273.600 304.302 C 268.208 307.823,264.032 310.542,258.199 314.325 L 254.098 316.985 233.299 322.613 L 212.500 328.241 196.200 326.403 C 187.235 325.392,175.184 324.026,169.421 323.368 L 158.942 322.172 140.321 312.065 L 121.700 301.958 107.933 287.606 L 94.165 273.253 86.572 258.777 L 78.979 244.300 74.990 219.524 L 71.001 194.749 75.104 175.824 C 77.361 165.416,79.262 156.630,79.328 156.300 C 79.441 155.743,81.385 152.319,95.284 128.200 C 101.050 118.195,100.121 119.414,106.500 113.497 C 109.126 111.060,112.368 108.030,112.598 107.796 C 112.654 107.738,113.422 107.018,114.304 106.196 C 115.187 105.373,117.122 103.567,118.604 102.182 C 130.511 91.058,131.178 90.463,132.138 90.103 C 134.104 89.367,163.740 77.908,170.000 75.465 L 173.300 74.176 181.700 73.590 C 186.320 73.268,190.910 72.953,191.900 72.890 C 192.890 72.827,196.670 72.567,200.300 72.312 C 210.618 71.588,208.467 71.348,221.674 74.700 M314.308 149.158 C 314.254 149.213,314.153 149.110,314.084 148.930 C 314.015 148.750,313.886 148.647,313.798 148.701 C 313.709 148.756,313.685 148.617,313.744 148.393 C 313.843 148.014,313.869 148.023,314.129 148.523 C 314.282 148.818,314.363 149.104,314.308 149.158 M317.937 167.930 C 317.759 168.108,317.400 167.803,317.400 167.474 C 317.400 167.213,317.444 167.216,317.724 167.495 C 317.902 167.673,317.998 167.869,317.937 167.930 M319.062 168.745 C 318.821 168.990,318.692 169.233,318.776 169.285 C 318.953 169.394,319.653 168.635,319.561 168.434 C 319.528 168.360,319.303 168.500,319.062 168.745 " stroke="none" fill="#9de8f1" fill-rule="evenodd"></path><path id="path4" d="M190.612 73.025 L 173.523 74.204 152.321 82.399 C 140.660 86.907,130.980 90.749,130.810 90.937 C 130.525 91.250,130.529 91.256,130.855 91.011 C 131.050 90.863,131.238 90.778,131.273 90.821 C 131.308 90.865,132.506 92.970,133.936 95.500 C 148.372 121.041,156.971 135.970,158.877 138.802 C 160.100 140.618,163.343 145.523,166.085 149.702 C 168.827 153.881,172.584 159.602,174.433 162.415 L 177.797 167.530 181.786 170.365 C 183.980 171.924,185.877 173.200,186.001 173.200 C 186.126 173.200,188.314 171.369,190.864 169.131 C 197.309 163.475,204.106 157.506,205.317 156.439 C 206.294 155.579,206.507 155.175,210.603 146.412 L 214.872 137.281 216.086 137.441 C 216.754 137.529,219.865 137.955,223.000 138.388 C 226.135 138.821,228.953 139.203,229.263 139.237 C 229.822 139.300,229.877 139.195,236.884 124.610 C 240.766 116.530,244.050 109.883,244.181 109.840 C 244.313 109.796,247.305 110.364,250.831 111.103 L 257.242 112.447 258.171 111.792 C 258.682 111.431,260.090 110.464,261.300 109.642 C 262.510 108.821,264.785 107.251,266.355 106.154 L 269.209 104.160 268.555 103.284 C 268.195 102.802,264.615 98.007,260.600 92.629 L 253.300 82.850 252.200 82.544 C 244.672 80.450,209.646 71.804,208.768 71.823 C 208.181 71.836,200.010 72.377,190.612 73.025 M128.389 93.150 L 127.700 93.900 128.450 93.211 C 129.148 92.569,129.292 92.400,129.139 92.400 C 129.106 92.400,128.768 92.738,128.389 93.150 M125.389 95.950 L 124.700 96.700 125.450 96.011 C 126.148 95.369,126.292 95.200,126.139 95.200 C 126.106 95.200,125.768 95.538,125.389 95.950 M122.389 98.750 L 121.700 99.500 122.450 98.811 C 123.148 98.169,123.292 98.000,123.139 98.000 C 123.106 98.000,122.768 98.338,122.389 98.750 M119.589 101.350 L 118.900 102.100 119.650 101.411 C 120.348 100.769,120.492 100.600,120.339 100.600 C 120.306 100.600,119.968 100.938,119.589 101.350 M116.589 104.150 L 115.900 104.900 116.650 104.211 C 117.063 103.832,117.400 103.494,117.400 103.461 C 117.400 103.308,117.231 103.452,116.589 104.150 M113.789 106.750 L 113.100 107.500 113.850 106.811 C 114.263 106.432,114.600 106.094,114.600 106.061 C 114.600 105.908,114.431 106.052,113.789 106.750 M110.789 109.550 L 110.100 110.300 110.850 109.611 C 111.548 108.969,111.692 108.800,111.539 108.800 C 111.506 108.800,111.168 109.138,110.789 109.550 M107.789 112.350 L 107.100 113.100 107.850 112.411 C 108.548 111.769,108.692 111.600,108.539 111.600 C 108.506 111.600,108.168 111.938,107.789 112.350 M287.167 152.161 C 287.130 152.249,282.465 153.563,276.800 155.082 C 271.135 156.600,264.802 158.302,262.727 158.864 L 258.953 159.887 258.000 158.800 L 257.047 157.713 252.673 158.182 L 248.300 158.650 244.058 160.566 C 241.724 161.620,239.850 162.516,239.892 162.558 C 239.934 162.600,241.782 162.439,244.000 162.200 C 246.218 161.961,248.077 161.811,248.132 161.866 C 248.217 161.950,247.012 172.519,246.686 174.550 L 246.582 175.200 242.741 175.202 L 238.900 175.204 234.900 181.631 C 232.700 185.165,230.838 188.163,230.761 188.291 C 230.685 188.419,230.821 188.755,231.063 189.037 C 231.306 189.320,232.988 191.548,234.802 193.989 C 236.616 196.431,238.354 198.757,238.664 199.159 C 238.974 199.562,239.134 199.922,239.018 199.961 C 238.849 200.017,230.574 199.095,227.550 198.683 C 226.610 198.555,226.552 198.299,228.226 201.657 L 229.653 204.518 228.726 207.019 C 228.217 208.394,227.800 209.588,227.800 209.672 C 227.800 209.757,228.710 209.077,229.823 208.163 C 230.935 207.248,232.533 205.969,233.373 205.320 C 234.213 204.671,234.945 204.082,235.000 204.013 C 235.055 203.943,235.820 203.305,236.700 202.596 C 237.580 201.887,238.524 201.103,238.798 200.854 C 239.537 200.180,239.487 200.093,240.879 204.450 C 242.883 210.720,244.866 216.961,246.853 223.245 L 248.670 228.990 247.339 233.239 C 246.608 235.577,246.075 237.549,246.155 237.623 C 246.235 237.697,247.348 238.075,248.629 238.463 C 250.673 239.083,255.559 241.157,256.708 241.893 C 257.077 242.129,257.223 242.058,258.208 241.160 C 258.809 240.612,259.660 239.839,260.100 239.441 C 260.540 239.042,261.890 237.779,263.100 236.633 C 264.310 235.487,265.586 234.330,265.936 234.062 L 266.572 233.574 274.036 238.018 C 278.141 240.462,281.648 242.562,281.829 242.685 C 282.112 242.877,281.444 243.681,277.080 248.398 C 273.827 251.914,272.035 253.998,272.096 254.194 C 272.201 254.533,272.640 256.770,273.610 261.900 C 273.964 263.770,274.277 265.328,274.306 265.362 C 274.334 265.397,275.271 264.966,276.388 264.406 C 277.504 263.846,278.484 263.429,278.566 263.479 C 278.647 263.529,280.826 270.551,283.407 279.083 C 285.988 287.615,288.145 294.594,288.200 294.592 C 288.255 294.590,288.586 294.208,288.937 293.744 C 289.287 293.280,289.738 292.720,289.939 292.500 C 290.140 292.280,291.244 290.930,292.391 289.500 C 293.538 288.070,294.534 286.855,294.603 286.800 C 294.673 286.745,295.128 286.197,295.615 285.583 C 296.102 284.968,297.220 283.582,298.100 282.503 C 298.980 281.423,299.970 280.206,300.300 279.797 C 300.630 279.388,301.620 278.173,302.500 277.097 C 303.380 276.021,304.370 274.806,304.700 274.397 C 305.030 273.988,305.840 272.994,306.500 272.187 C 312.624 264.704,311.718 266.207,314.298 259.250 C 315.553 255.867,318.650 247.524,321.181 240.709 C 323.713 233.893,325.748 228.281,325.704 228.237 C 325.627 228.160,315.978 231.969,301.128 237.940 C 297.184 239.526,293.933 240.795,293.905 240.762 C 293.876 240.728,296.368 237.415,299.443 233.400 C 306.618 224.029,308.291 221.840,311.689 217.369 C 313.222 215.351,316.107 211.585,318.098 209.000 C 320.089 206.415,322.089 203.805,322.541 203.200 C 322.993 202.595,323.799 201.540,324.331 200.856 C 327.406 196.907,328.800 195.013,328.800 194.784 C 328.800 194.642,327.028 188.567,324.863 181.283 L 320.926 168.041 319.413 169.128 C 318.581 169.726,317.711 170.310,317.481 170.426 C 317.110 170.612,311.356 167.345,306.299 164.077 C 305.919 163.832,305.807 164.012,304.117 167.609 C 303.137 169.694,302.255 171.400,302.157 171.400 C 301.976 171.400,296.111 168.038,295.200 167.412 C 294.925 167.223,293.103 166.143,291.150 165.013 L 287.600 162.957 287.600 157.478 C 287.600 152.710,287.491 151.378,287.167 152.161 " stroke="none" fill="#20ee85" fill-rule="evenodd"></path></g></svg>